# xmcd
#
# Track frame offsets: 
#        150
#        19341
#        28702
#        38358
#        56879
#        65065
#        81836
#        99432
#        113668
#        128283
#        142243
#        153228
#        167271
#        176250
#        185954
#        198404
#        209936
#        221623
#        236341
#        261553
#
# Disc length: 3704 seconds
#
# Revision: 0
# Processed by: cddbd v1.5.2PL0 Copyright (c) Steve Scherf et al.
# Submitted via: ExactAudioCopyFreeDBPlugin 1.0
#
DISCID=210e7614
DTITLE=Eva Olmerova - Ja hledam stesti [CD1)
DYEAR=2014
DGENRE=Country
TTITLE0=Az ztichnou bile skaly
TTITLE1=Osamely rvac
TTITLE2=Svet ticha
TTITLE3=Cajova ruze
TTITLE4=Klidny je vecer
TTITLE5=Muj mily se vratil
TTITLE6=Eva Olmerova and Jiri Grossmann - Pojd
TTITLE7=Cekej tise
TTITLE8=Matka
TTITLE9=Tam pod nebeskou bani
TTITLE10=Vzdavam svuj dik
TTITLE11=Slunce shanim
TTITLE12=Bila mriz
TTITLE13=Den zacina krasne
TTITLE14=Prijde cas, kdy skonci my trapeni
TTITLE15=Cekam na ten svuj den
TTITLE16=Walk In Jerusalem
TTITLE17=Then The Answer Came
TTITLE18=O, bozi den
TTITLE19=Lord, What You've Done For Me
EXTD=
EXTT0=
EXTT1=
EXTT2=
EXTT3=
EXTT4=
EXTT5=
EXTT6=
EXTT7=
EXTT8=
EXTT9=
EXTT10=
EXTT11=
EXTT12=
EXTT13=
EXTT14=
EXTT15=
EXTT16=
EXTT17=
EXTT18=
EXTT19=
PLAYORDER=
